<?xml version="1.0" encoding="utf-8"?>
<!-- Generator: Adobe Illustrator 24.3.0, SVG Export Plug-In . SVG Version: 6.00 Build 0)  -->
<svg version="1.1" id="레이어_1" xmlns="http://www.w3.org/2000/svg" xmlns:xlink="http://www.w3.org/1999/xlink" x="0px"
	 y="0px" viewBox="0 0 762.6 330.6" style="enable-background:new 0 0 762.6 330.6;" xml:space="preserve">
<style type="text/css">
	.st0{fill:url(#SVGID_1_);}
	.st1{fill:#004EFF;}
	.st2{fill:#1A1311;}
</style>
<g>
	
		<radialGradient id="SVGID_1_" cx="185.1849" cy="-121.7646" r="181.4224" gradientTransform="matrix(1 0 0 -1 0 -87.7346)" gradientUnits="userSpaceOnUse">
		<stop  offset="0" style="stop-color:#004EFF"/>
		<stop  offset="0.903" style="stop-color:#000000"/>
	</radialGradient>
	<path class="st0" d="M196.2,28.6c0,0-1.6,3.4-4.3,7.4c-4.1,6.3-10.1,15.1-14,20.5c0,0-17.8,21.6-24.1,28.8
		c-3.2,3.6-10.6,11.3-17.3,18.3l0.2-0.2l-0.5,0.5c-0.2,0.2-0.2,0.2-0.5,0.5c-0.2,0.2-0.5,0.5-0.7,0.7c-0.5,0.5-0.9,0.9-1.1,1.1
		c-5.6,5.6-10.1,10.4-10.1,10.4c-4.1,3.8-16.9,14.6-16.9,14.6l-2.9,2.5l-2.9,2.5l7.4-7.2c5-5.9,18.5-23,16.9-31.5
		c0-0.2-0.2-0.9-0.2-1.1c0-40.3-30.2-89.9-32-93.3L93,2.6l0,0C131.7,4.7,173.2,11.9,196.2,28.6z"/>
	<path class="st1" d="M125.4,97.3c0-0.5-0.5-2.3-0.7-2.7C119.1,77.9,77,81.3,77,81.3v76.4l-75.3,64V3.8c0,0,43.5-3.8,91.3-1.1
		c0,0,0.2,0,0.2,0.2C95,6.2,135.1,56.5,125.4,97.3z"/>
	<path class="st2" d="M196.2,28.6c0,0,1.4,1.1,2.3,1.8c7.4,6.3,16,17.8,18.5,25c12.2,36.5-3.6,70.5-43,115.4
		c16.2,24.3,50.7,76.2,63.3,92.4c14.6,19.4,43.9,50.7,43.9,50.7h-100l-59.7-88.5V225l-8.3-12.2l8.3,12.4L1.7,328.2V221.6l99.4-85.6
		l2.9-2.5l2.9-2.5c0,0,12.8-10.8,16.9-14.6c0,0,4.5-4.5,10.1-10.4c0.5-0.5,0.9-0.9,1.1-1.1c0.2-0.2,0.5-0.5,0.7-0.7
		c0.2-0.2,0.2-0.2,0.5-0.5l0.5-0.5c6.8-7,14-14.4,17.1-18c5.6-6.1,19.4-23,23.2-27.7c0.7-0.9,1.4-1.6,1.8-2.5
		c3.8-5.4,9.2-13.5,13.1-19.2"/>
</g>
<g>
	<polygon class="st2" points="398.7,239.2 398.7,192.1 470.9,192.1 470.9,123.9 398.7,123.9 398.7,82 499,82 519.5,4.7 305.2,4.7 
		305.2,10.3 305.2,82 305.2,123.9 305.2,192.1 305.2,239.2 305.2,320.3 305.2,320.6 561.7,320.6 540.9,239.2 	"/>
	<rect x="597" y="114.8" class="st2" width="165.6" height="71.2"/>
</g>
<polygon class="st2" points="121.4,225.3 121.4,225.3 113,212.9 113,212.9 121.4,225 "/>
<path class="st1" d="M105.4,132.2c1.1-1.1,2.3-2.3,3.4-3.4c-0.5,0.5-0.7,0.9-0.9,1.1s-0.5,0.5-0.5,0.5l0,0l-1.6,1.4L105.4,132.2z"/>
<path class="st1" d="M105.6,132l2-1.8c-0.2,0.2-0.5,0.5-0.5,0.5l0,0c-0.2,0.2-0.2,0.2-0.2,0.2l-2.9,2.5l1.4-1.1L105.6,132z"/>
<path class="st1" d="M136.7,103.4c0.7-0.7,1.6-1.6,2.3-2.3C138.3,101.8,137.6,102.5,136.7,103.4L136.7,103.4z"/>
<path class="st2" d="M136.7,103.4l-0.5,0.5c0,0,0,0,0.2-0.2L136.7,103.4L136.7,103.4z"/>
</svg>
